<mxfile host="Electron" agent="Mozilla/5.0 (Macintosh; Intel Mac OS X 10_15_7) AppleWebKit/537.36 (KHTML, like Gecko) draw.io/24.7.5 Chrome/126.0.6478.183 Electron/31.3.0 Safari/537.36" version="24.7.5">
  <diagram name="Page-1" id="ckEoCvxv67oSRy5Vn5_s">
    <mxGraphModel dx="-2938" dy="2982" grid="1" gridSize="10" guides="1" tooltips="1" connect="1" arrows="1" fold="1" page="1" pageScale="1" pageWidth="1169" pageHeight="827" math="0" shadow="0">
      <root>
        <mxCell id="0" />
        <mxCell id="1" parent="0" />
        <mxCell id="uQT7_8eZXiCh4m7MQPwC-1" value="&lt;div&gt;&lt;i&gt;&amp;lt;&amp;lt;Abstract&amp;gt;&amp;gt;&lt;/i&gt;&lt;/div&gt;&lt;i&gt;Robot&lt;/i&gt;&lt;div&gt;&lt;i&gt;&lt;br&gt;&lt;/i&gt;&lt;/div&gt;" style="swimlane;fontStyle=1;align=center;verticalAlign=top;childLayout=stackLayout;horizontal=1;startSize=37;horizontalStack=0;resizeParent=1;resizeParentMax=0;resizeLast=0;collapsible=1;marginBottom=0;whiteSpace=wrap;html=1;" parent="1" vertex="1">
          <mxGeometry x="5911" y="6" width="274" height="460" as="geometry" />
        </mxCell>
        <mxCell id="uQT7_8eZXiCh4m7MQPwC-2" value="&lt;div&gt;&lt;div&gt;- count: &lt;span class=&quot;hljs-keyword&quot;&gt;int&lt;/span&gt;&amp;nbsp;&lt;/div&gt;&lt;div&gt;- id: String&amp;nbsp;&lt;/div&gt;&lt;div&gt;- floor: &lt;span class=&quot;hljs-keyword&quot;&gt;int&lt;/span&gt;&amp;nbsp;&lt;/div&gt;&lt;div&gt;- room: &lt;span class=&quot;hljs-keyword&quot;&gt;int&lt;/span&gt;&amp;nbsp;&lt;/div&gt;&lt;div&gt;- capacity: &lt;span class=&quot;hljs-keyword&quot;&gt;int&lt;/span&gt;&amp;nbsp;&lt;/div&gt;&lt;div&gt;- MAX_CAPACITY: &lt;span class=&quot;hljs-keyword&quot;&gt;int&lt;/span&gt;&amp;nbsp;&lt;/div&gt;&lt;div&gt;- items: List&amp;lt;Item&amp;gt;&amp;nbsp; &amp;nbsp; &amp;nbsp; &amp;nbsp;&lt;br&gt;&lt;/div&gt;&lt;/div&gt;" style="text;strokeColor=none;fillColor=none;align=left;verticalAlign=top;spacingLeft=4;spacingRight=4;overflow=hidden;rotatable=0;points=[[0,0.5],[1,0.5]];portConstraint=eastwest;whiteSpace=wrap;html=1;" parent="uQT7_8eZXiCh4m7MQPwC-1" vertex="1">
          <mxGeometry y="37" width="274" height="118" as="geometry" />
        </mxCell>
        <mxCell id="uQT7_8eZXiCh4m7MQPwC-3" value="" style="line;strokeWidth=1;fillColor=none;align=left;verticalAlign=middle;spacingTop=-1;spacingLeft=3;spacingRight=3;rotatable=0;labelPosition=right;points=[];portConstraint=eastwest;strokeColor=inherit;" parent="uQT7_8eZXiCh4m7MQPwC-1" vertex="1">
          <mxGeometry y="155" width="274" height="8" as="geometry" />
        </mxCell>
        <mxCell id="uQT7_8eZXiCh4m7MQPwC-4" value="&lt;div&gt;+ &lt;span class=&quot;hljs-title function_ invoke__&quot;&gt;Robot&lt;/span&gt;(&lt;span class=&quot;hljs-attr&quot;&gt;capacity&lt;/span&gt;: &lt;span class=&quot;hljs-keyword&quot;&gt;int&lt;/span&gt;)&lt;/div&gt;&lt;div&gt;+ toString(): String&lt;/div&gt;&lt;div&gt;&lt;span style=&quot;background-color: initial;&quot;&gt;+ &lt;/span&gt;&lt;span style=&quot;background-color: initial;&quot; class=&quot;hljs-title function_ invoke__&quot;&gt;getFloor&lt;/span&gt;&lt;span style=&quot;background-color: initial;&quot;&gt;(): &lt;/span&gt;&lt;span style=&quot;background-color: initial;&quot; class=&quot;hljs-keyword&quot;&gt;int&lt;/span&gt;&lt;span style=&quot;background-color: initial;&quot;&gt;&amp;nbsp;&lt;/span&gt;&lt;/div&gt;&lt;div&gt;&lt;span style=&quot;background-color: initial;&quot;&gt;+ &lt;/span&gt;&lt;span style=&quot;background-color: initial;&quot; class=&quot;hljs-title function_ invoke__&quot;&gt;getRoom&lt;/span&gt;&lt;span style=&quot;background-color: initial;&quot;&gt;(): &lt;/span&gt;&lt;span style=&quot;background-color: initial;&quot; class=&quot;hljs-keyword&quot;&gt;int&lt;/span&gt;&lt;span style=&quot;background-color: initial;&quot;&gt;&amp;nbsp;&lt;/span&gt;&lt;/div&gt;&lt;div&gt;&lt;span style=&quot;background-color: initial;&quot;&gt;+ &lt;/span&gt;&lt;span style=&quot;background-color: initial;&quot; class=&quot;hljs-title function_ invoke__&quot;&gt;getId&lt;/span&gt;&lt;span style=&quot;background-color: initial;&quot;&gt;(): String&amp;nbsp;&lt;/span&gt;&lt;/div&gt;&lt;div&gt;&lt;span style=&quot;background-color: initial;&quot;&gt;+ &lt;/span&gt;&lt;span style=&quot;background-color: initial;&quot; class=&quot;hljs-title function_ invoke__&quot;&gt;getCapacity&lt;/span&gt;&lt;span style=&quot;background-color: initial;&quot;&gt;(): &lt;/span&gt;&lt;span style=&quot;background-color: initial;&quot; class=&quot;hljs-keyword&quot;&gt;int&lt;/span&gt;&lt;span style=&quot;background-color: initial;&quot;&gt;&amp;nbsp;&lt;/span&gt;&lt;/div&gt;&lt;div&gt;&lt;span style=&quot;background-color: initial;&quot;&gt;+ &lt;/span&gt;&lt;span style=&quot;background-color: initial;&quot; class=&quot;hljs-title function_ invoke__&quot;&gt;setCapacity&lt;/span&gt;&lt;span style=&quot;background-color: initial;&quot;&gt;(&lt;/span&gt;&lt;span style=&quot;background-color: initial;&quot; class=&quot;hljs-attr&quot;&gt;newCapacity&lt;/span&gt;&lt;span style=&quot;background-color: initial;&quot;&gt;: &lt;/span&gt;&lt;span style=&quot;background-color: initial;&quot; class=&quot;hljs-keyword&quot;&gt;int&lt;/span&gt;&lt;span style=&quot;background-color: initial;&quot;&gt;): &lt;/span&gt;&lt;span style=&quot;background-color: initial;&quot; class=&quot;hljs-keyword&quot;&gt;void&lt;/span&gt;&lt;span style=&quot;background-color: initial;&quot;&gt;&amp;nbsp;&lt;/span&gt;&lt;/div&gt;&lt;div&gt;&lt;span style=&quot;background-color: initial;&quot;&gt;+ &lt;/span&gt;&lt;span style=&quot;background-color: initial;&quot; class=&quot;hljs-title function_ invoke__&quot;&gt;setItems&lt;/span&gt;&lt;span style=&quot;background-color: initial;&quot;&gt;(&lt;/span&gt;&lt;span style=&quot;background-color: initial;&quot; class=&quot;hljs-attr&quot;&gt;items&lt;/span&gt;&lt;span style=&quot;background-color: initial;&quot;&gt;: List&amp;lt;Item&amp;gt;): &lt;/span&gt;&lt;span style=&quot;background-color: initial;&quot; class=&quot;hljs-keyword&quot;&gt;void&lt;/span&gt;&lt;/div&gt;&lt;div&gt;&lt;span style=&quot;background-color: initial;&quot;&gt;+ &lt;/span&gt;&lt;span style=&quot;background-color: initial;&quot; class=&quot;hljs-title function_ invoke__&quot;&gt;getMAX_CAPACITY&lt;/span&gt;&lt;span style=&quot;background-color: initial;&quot;&gt;(): &lt;/span&gt;&lt;span style=&quot;background-color: initial;&quot; class=&quot;hljs-keyword&quot;&gt;int&lt;/span&gt;&lt;span style=&quot;background-color: initial;&quot;&gt;&amp;nbsp;&lt;/span&gt;&lt;/div&gt;&lt;div&gt;&lt;span style=&quot;background-color: initial;&quot;&gt;+ &lt;/span&gt;&lt;span style=&quot;background-color: initial;&quot; class=&quot;hljs-title function_ invoke__&quot;&gt;isEmpty&lt;/span&gt;&lt;span style=&quot;background-color: initial;&quot;&gt;(): &lt;/span&gt;&lt;span style=&quot;background-color: initial;&quot; class=&quot;hljs-keyword&quot;&gt;boolean&lt;/span&gt;&lt;span style=&quot;background-color: initial;&quot;&gt;&amp;nbsp;&lt;/span&gt;&lt;/div&gt;&lt;div&gt;&lt;span style=&quot;background-color: initial;&quot;&gt;+ &lt;/span&gt;&lt;span style=&quot;background-color: initial;&quot; class=&quot;hljs-title function_ invoke__&quot;&gt;getItems&lt;/span&gt;&lt;span style=&quot;background-color: initial;&quot;&gt;(): List&amp;lt;Item&amp;gt;&lt;/span&gt;&amp;nbsp;&amp;nbsp;&lt;br&gt;&lt;/div&gt;&lt;div&gt;&lt;span style=&quot;background-color: initial;&quot;&gt;+ place(floor: int, room: int): void&lt;/span&gt;&lt;br&gt;&lt;/div&gt;&lt;div&gt;&lt;span class=&quot;hljs-comment&quot;&gt;# move(direction: Direction,&amp;nbsp;&lt;/span&gt;robotsController: RobotsController):&amp;nbsp;&lt;span class=&quot;hljs-keyword&quot;&gt;void&lt;/span&gt;&lt;span style=&quot;background-color: initial;&quot;&gt;&lt;br&gt;&lt;/span&gt;&lt;/div&gt;&lt;div&gt;&lt;span class=&quot;hljs-keyword&quot;&gt;+ &lt;span class=&quot;hljs-title function_ invoke__&quot;&gt;engine&lt;/span&gt;(&lt;span class=&quot;hljs-attr&quot;&gt;robotsController&lt;/span&gt;:&amp;nbsp;&lt;span style=&quot;background-color: initial;&quot;&gt;RobotsController): &lt;/span&gt;&lt;span style=&quot;background-color: initial;&quot; class=&quot;hljs-keyword&quot;&gt;void&lt;/span&gt;&lt;/span&gt;&lt;/div&gt;&lt;div&gt;+ numItems(): int&lt;/div&gt;&lt;div&gt;+ add(item: Item): void&lt;/div&gt;&lt;div&gt;+ sort(): void&lt;/div&gt;" style="text;strokeColor=none;fillColor=none;align=left;verticalAlign=top;spacingLeft=4;spacingRight=4;overflow=hidden;rotatable=0;points=[[0,0.5],[1,0.5]];portConstraint=eastwest;whiteSpace=wrap;html=1;" parent="uQT7_8eZXiCh4m7MQPwC-1" vertex="1">
          <mxGeometry y="163" width="274" height="297" as="geometry" />
        </mxCell>
        <mxCell id="uQT7_8eZXiCh4m7MQPwC-5" value="CyclingRobot" style="swimlane;fontStyle=1;align=center;verticalAlign=top;childLayout=stackLayout;horizontal=1;startSize=26;horizontalStack=0;resizeParent=1;resizeParentMax=0;resizeLast=0;collapsible=1;marginBottom=0;whiteSpace=wrap;html=1;" parent="1" vertex="1">
          <mxGeometry x="5680" y="-203" width="183" height="97" as="geometry" />
        </mxCell>
        <mxCell id="uQT7_8eZXiCh4m7MQPwC-6" value="" style="line;strokeWidth=1;fillColor=none;align=left;verticalAlign=middle;spacingTop=-1;spacingLeft=3;spacingRight=3;rotatable=0;labelPosition=right;points=[];portConstraint=eastwest;strokeColor=inherit;" parent="uQT7_8eZXiCh4m7MQPwC-5" vertex="1">
          <mxGeometry y="26" width="183" height="8" as="geometry" />
        </mxCell>
        <mxCell id="uQT7_8eZXiCh4m7MQPwC-7" value="+ CyclingRobot(capacity: int)&amp;nbsp;&lt;div&gt;&lt;span class=&quot;hljs-section&quot;&gt;+ engine(robotsController: RobotsController): void&lt;/span&gt;&lt;br&gt;&lt;/div&gt;" style="text;strokeColor=none;fillColor=none;align=left;verticalAlign=top;spacingLeft=4;spacingRight=4;overflow=hidden;rotatable=0;points=[[0,0.5],[1,0.5]];portConstraint=eastwest;whiteSpace=wrap;html=1;" parent="uQT7_8eZXiCh4m7MQPwC-5" vertex="1">
          <mxGeometry y="34" width="183" height="63" as="geometry" />
        </mxCell>
        <mxCell id="uQT7_8eZXiCh4m7MQPwC-8" value="ColumnRobot" style="swimlane;fontStyle=1;align=center;verticalAlign=top;childLayout=stackLayout;horizontal=1;startSize=26;horizontalStack=0;resizeParent=1;resizeParentMax=0;resizeLast=0;collapsible=1;marginBottom=0;whiteSpace=wrap;html=1;" parent="1" vertex="1">
          <mxGeometry x="5980" y="-203" width="186" height="115" as="geometry" />
        </mxCell>
        <mxCell id="uQT7_8eZXiCh4m7MQPwC-9" value="" style="line;strokeWidth=1;fillColor=none;align=left;verticalAlign=middle;spacingTop=-1;spacingLeft=3;spacingRight=3;rotatable=0;labelPosition=right;points=[];portConstraint=eastwest;strokeColor=inherit;" parent="uQT7_8eZXiCh4m7MQPwC-8" vertex="1">
          <mxGeometry y="26" width="186" height="8" as="geometry" />
        </mxCell>
        <mxCell id="uQT7_8eZXiCh4m7MQPwC-10" value="&lt;div&gt;+ ColumnRobot(capacity: int)&amp;nbsp;&lt;br&gt;&lt;/div&gt;+ transfer(robot: Robot): void&lt;div&gt;+ engine(robotsController: RobotsController): void&lt;/div&gt;&lt;div&gt;- sendSignal(fr: FloorRobot): void&lt;br&gt;&lt;/div&gt;" style="text;strokeColor=none;fillColor=none;align=left;verticalAlign=top;spacingLeft=4;spacingRight=4;overflow=hidden;rotatable=0;points=[[0,0.5],[1,0.5]];portConstraint=eastwest;whiteSpace=wrap;html=1;" parent="uQT7_8eZXiCh4m7MQPwC-8" vertex="1">
          <mxGeometry y="34" width="186" height="81" as="geometry" />
        </mxCell>
        <mxCell id="uQT7_8eZXiCh4m7MQPwC-11" value="FloorRobot" style="swimlane;fontStyle=1;align=center;verticalAlign=top;childLayout=stackLayout;horizontal=1;startSize=25;horizontalStack=0;resizeParent=1;resizeParentMax=0;resizeLast=0;collapsible=1;marginBottom=0;whiteSpace=wrap;html=1;" parent="1" vertex="1">
          <mxGeometry x="6250" y="-208" width="310" height="208" as="geometry" />
        </mxCell>
        <mxCell id="uQT7_8eZXiCh4m7MQPwC-12" value="- targetRoom: &lt;span class=&quot;hljs-keyword&quot;&gt;int&lt;/span&gt;&amp;nbsp;&lt;div&gt;- waiting: &lt;span class=&quot;hljs-keyword&quot;&gt;boolean&lt;/span&gt;&amp;nbsp;&lt;/div&gt;&lt;div&gt;- movingToCR: &lt;span class=&quot;hljs-keyword&quot;&gt;boolean&lt;/span&gt;&amp;nbsp;&lt;/div&gt;&lt;div&gt;- signals: Queue&amp;lt;ColumnRobot&amp;gt;&amp;nbsp;&amp;nbsp;&lt;/div&gt;" style="whiteSpace=wrap;html=1;align=left;" parent="uQT7_8eZXiCh4m7MQPwC-11" vertex="1">
          <mxGeometry y="25" width="310" height="60" as="geometry" />
        </mxCell>
        <mxCell id="uQT7_8eZXiCh4m7MQPwC-13" value="&lt;div&gt;+ &lt;span class=&quot;hljs-title function_ invoke__&quot;&gt;FloorRobot&lt;/span&gt;(&lt;span class=&quot;hljs-attr&quot;&gt;capacity&lt;/span&gt;: &lt;span class=&quot;hljs-keyword&quot;&gt;int&lt;/span&gt;)&lt;br&gt;&lt;/div&gt;&lt;div&gt;+ &lt;span class=&quot;hljs-title function_ invoke__&quot;&gt;isWaiting&lt;/span&gt;(): &lt;span class=&quot;hljs-keyword&quot;&gt;boolean&lt;/span&gt;&lt;br&gt;&lt;/div&gt;&lt;div&gt;&lt;span class=&quot;hljs-keyword&quot;&gt;+ &lt;span class=&quot;hljs-title function_ invoke__&quot;&gt;getSignals&lt;/span&gt;(): Queue&amp;lt;ColumnRobot&amp;gt;&lt;br&gt;&lt;/span&gt;&lt;/div&gt;&lt;div&gt;&lt;span class=&quot;hljs-keyword&quot;&gt;+ &lt;span class=&quot;hljs-title function_ invoke__&quot;&gt;setSignals&lt;/span&gt;(&lt;span class=&quot;hljs-attr&quot;&gt;signals&lt;/span&gt;: Queue&amp;lt;ColumnRobot&amp;gt;): &lt;span class=&quot;hljs-keyword&quot;&gt;void&lt;/span&gt;&lt;br&gt;&lt;/span&gt;&lt;/div&gt;&lt;div&gt;&lt;span class=&quot;hljs-keyword&quot;&gt;&lt;span class=&quot;hljs-keyword&quot;&gt;+ &lt;span class=&quot;hljs-title function_ invoke__&quot;&gt;isMovingToCR&lt;/span&gt;(): &lt;span class=&quot;hljs-keyword&quot;&gt;boolean&lt;/span&gt;&amp;nbsp;&lt;/span&gt;&lt;/span&gt;&lt;/div&gt;&lt;div&gt;&lt;span class=&quot;hljs-keyword&quot;&gt;&lt;span class=&quot;hljs-keyword&quot;&gt;+ &lt;span class=&quot;hljs-title function_ invoke__&quot;&gt;setMovingToCR&lt;/span&gt;(&lt;span class=&quot;hljs-attr&quot;&gt;movingToCR&lt;/span&gt;: &lt;span class=&quot;hljs-keyword&quot;&gt;boolean&lt;/span&gt;): &lt;span class=&quot;hljs-keyword&quot;&gt;void&lt;/span&gt;&lt;/span&gt;&lt;/span&gt;&lt;/div&gt;&lt;div&gt;&lt;span class=&quot;hljs-keyword&quot;&gt;&lt;span class=&quot;hljs-keyword&quot;&gt;+ &lt;span class=&quot;hljs-title function_ invoke__&quot;&gt;engine&lt;/span&gt;(&lt;span class=&quot;hljs-attr&quot;&gt;robotsController&lt;/span&gt;: RobotsController): &lt;span class=&quot;hljs-keyword&quot;&gt;void&lt;/span&gt;&lt;/span&gt;&lt;/span&gt;&lt;/div&gt;" style="text;strokeColor=none;fillColor=none;align=left;verticalAlign=top;spacingLeft=4;spacingRight=4;overflow=hidden;rotatable=0;points=[[0,0.5],[1,0.5]];portConstraint=eastwest;whiteSpace=wrap;html=1;" parent="uQT7_8eZXiCh4m7MQPwC-11" vertex="1">
          <mxGeometry y="85" width="310" height="123" as="geometry" />
        </mxCell>
        <mxCell id="uQT7_8eZXiCh4m7MQPwC-14" value="Extends" style="endArrow=block;endSize=16;endFill=0;html=1;rounded=0;exitX=0.437;exitY=1;exitDx=0;exitDy=0;exitPerimeter=0;entryX=0.5;entryY=0;entryDx=0;entryDy=0;" parent="1" source="uQT7_8eZXiCh4m7MQPwC-10" target="uQT7_8eZXiCh4m7MQPwC-1" edge="1">
          <mxGeometry width="160" relative="1" as="geometry">
            <mxPoint x="6234" y="143" as="sourcePoint" />
            <mxPoint x="6165" y="-119" as="targetPoint" />
          </mxGeometry>
        </mxCell>
        <mxCell id="uQT7_8eZXiCh4m7MQPwC-15" value="Extends" style="endArrow=block;endSize=16;endFill=0;html=1;rounded=0;exitX=1.002;exitY=1.032;exitDx=0;exitDy=0;exitPerimeter=0;entryX=0;entryY=0;entryDx=0;entryDy=0;" parent="1" source="uQT7_8eZXiCh4m7MQPwC-7" target="uQT7_8eZXiCh4m7MQPwC-1" edge="1">
          <mxGeometry width="160" relative="1" as="geometry">
            <mxPoint x="5678.72" y="-173" as="sourcePoint" />
            <mxPoint x="5723.72" y="15" as="targetPoint" />
          </mxGeometry>
        </mxCell>
        <mxCell id="uQT7_8eZXiCh4m7MQPwC-16" value="Extends" style="endArrow=block;endSize=16;endFill=0;html=1;rounded=0;exitX=0.005;exitY=1.005;exitDx=0;exitDy=0;exitPerimeter=0;entryX=1;entryY=0;entryDx=0;entryDy=0;" parent="1" source="uQT7_8eZXiCh4m7MQPwC-13" target="uQT7_8eZXiCh4m7MQPwC-1" edge="1">
          <mxGeometry width="160" relative="1" as="geometry">
            <mxPoint x="6314.72" y="-165" as="sourcePoint" />
            <mxPoint x="6359.72" y="23" as="targetPoint" />
          </mxGeometry>
        </mxCell>
        <mxCell id="uQT7_8eZXiCh4m7MQPwC-17" value="&lt;div&gt;&amp;lt;&amp;lt;Abstract&amp;gt;&amp;gt;&lt;/div&gt;RobotController" style="swimlane;fontStyle=1;align=center;verticalAlign=top;childLayout=stackLayout;horizontal=1;startSize=39;horizontalStack=0;resizeParent=1;resizeParentMax=0;resizeLast=0;collapsible=1;marginBottom=0;whiteSpace=wrap;html=1;" parent="1" vertex="1">
          <mxGeometry x="5943" y="-801" width="299" height="391" as="geometry" />
        </mxCell>
        <mxCell id="uQT7_8eZXiCh4m7MQPwC-18" value="&lt;div&gt;- numRobots: &lt;span class=&quot;hljs-keyword&quot;&gt;int&lt;/span&gt;&amp;nbsp;&lt;/div&gt;&lt;div&gt;- robotCapacity: &lt;span class=&quot;hljs-keyword&quot;&gt;int&lt;/span&gt;&amp;nbsp;&lt;/div&gt;&lt;div&gt;- idleRobots: Queue&amp;lt;Robot&amp;gt;&amp;nbsp;&lt;/div&gt;&lt;div&gt;- activeRobots: List&amp;lt;Robot&amp;gt;&amp;nbsp;&lt;/div&gt;&lt;div&gt;- deactivatingRobots: List&amp;lt;Robot&amp;gt;&lt;/div&gt;" style="text;strokeColor=none;fillColor=none;align=left;verticalAlign=top;spacingLeft=4;spacingRight=4;overflow=hidden;rotatable=0;points=[[0,0.5],[1,0.5]];portConstraint=eastwest;whiteSpace=wrap;html=1;" parent="uQT7_8eZXiCh4m7MQPwC-17" vertex="1">
          <mxGeometry y="39" width="299" height="87" as="geometry" />
        </mxCell>
        <mxCell id="uQT7_8eZXiCh4m7MQPwC-19" value="" style="line;strokeWidth=1;fillColor=none;align=left;verticalAlign=middle;spacingTop=-1;spacingLeft=3;spacingRight=3;rotatable=0;labelPosition=right;points=[];portConstraint=eastwest;strokeColor=inherit;" parent="uQT7_8eZXiCh4m7MQPwC-17" vertex="1">
          <mxGeometry y="126" width="299" height="8" as="geometry" />
        </mxCell>
        <mxCell id="uQT7_8eZXiCh4m7MQPwC-20" value="&lt;div&gt;+ &lt;span class=&quot;hljs-title function_ invoke__&quot;&gt;RobotsController&lt;/span&gt;(&lt;span class=&quot;hljs-attr&quot;&gt;numRobots&lt;/span&gt;: &lt;span class=&quot;hljs-keyword&quot;&gt;int&lt;/span&gt;,&amp;nbsp;&lt;span class=&quot;hljs-attr&quot;&gt;numFloors&lt;/span&gt;: &lt;span class=&quot;hljs-keyword&quot;&gt;int&lt;/span&gt;, &lt;span class=&quot;hljs-attr&quot;&gt;robotCapacity&lt;/span&gt;: &lt;span class=&quot;hljs-keyword&quot;&gt;int&lt;/span&gt;)&amp;nbsp;&lt;br&gt;&lt;/div&gt;&lt;div&gt;+ &lt;span class=&quot;hljs-title function_ invoke__&quot;&gt;getMailRoom&lt;/span&gt;(): MailRoom&amp;nbsp;&lt;/div&gt;&lt;div&gt;+ &lt;span class=&quot;hljs-title function_ invoke__&quot;&gt;getActiveRobots&lt;/span&gt;(): List&amp;lt;Robot&amp;gt;&amp;nbsp;&lt;/div&gt;&lt;div&gt;+ &lt;span class=&quot;hljs-title function_ invoke__&quot;&gt;getDeactivatingRobots&lt;/span&gt;(): List&amp;lt;Robot&amp;gt;&amp;nbsp;&lt;/div&gt;&lt;div&gt;+ &lt;span class=&quot;hljs-title function_ invoke__&quot;&gt;getIdleRobots&lt;/span&gt;(): Queue&amp;lt;Robot&amp;gt;&amp;nbsp;&lt;/div&gt;&lt;div&gt;+ &lt;span class=&quot;hljs-title function_ invoke__&quot;&gt;getRobotCapacity&lt;/span&gt;(): &lt;span class=&quot;hljs-keyword&quot;&gt;int&lt;/span&gt;&lt;br&gt;&lt;/div&gt;&lt;div&gt;&lt;span class=&quot;hljs-keyword&quot;&gt;+ &lt;span class=&quot;hljs-title function_ invoke__&quot;&gt;setActiveRobots&lt;/span&gt;(&lt;span class=&quot;hljs-attr&quot;&gt;activeRobots&lt;/span&gt;: List&amp;lt;Robot&amp;gt;):&amp;nbsp;&lt;span class=&quot;hljs-keyword&quot;&gt;void&lt;/span&gt;&amp;nbsp;&lt;/span&gt;&lt;/div&gt;&lt;div&gt;&lt;span class=&quot;hljs-keyword&quot;&gt;+&amp;nbsp;&lt;span class=&quot;hljs-title function_ invoke__&quot;&gt;setDeactivatingRobots&lt;/span&gt;(&lt;span class=&quot;hljs-attr&quot;&gt;deactivatingRobots&lt;/span&gt;: List&amp;lt;Robot&amp;gt;): &lt;span class=&quot;hljs-keyword&quot;&gt;void&lt;/span&gt;&amp;nbsp;&lt;/span&gt;&lt;/div&gt;&lt;div&gt;&lt;span class=&quot;hljs-keyword&quot;&gt;+ &lt;span class=&quot;hljs-title function_ invoke__&quot;&gt;setIdleRobots&lt;/span&gt;(&lt;span class=&quot;hljs-attr&quot;&gt;idleRobots&lt;/span&gt;: Queue&amp;lt;Robot&amp;gt;):&amp;nbsp;&lt;span class=&quot;hljs-keyword&quot;&gt;void&lt;/span&gt;&amp;nbsp;&lt;/span&gt;&lt;/div&gt;&lt;div&gt;&lt;span class=&quot;hljs-keyword&quot;&gt;+ &lt;span class=&quot;hljs-title function_ invoke__&quot;&gt;setRobotCapacity&lt;/span&gt;(&lt;span class=&quot;hljs-attr&quot;&gt;robotCapacity&lt;/span&gt;: &lt;span class=&quot;hljs-keyword&quot;&gt;int&lt;/span&gt;): &lt;span class=&quot;hljs-keyword&quot;&gt;void&lt;/span&gt;&lt;br&gt;&lt;/span&gt;&lt;/div&gt;&lt;div&gt;&lt;span class=&quot;hljs-keyword&quot;&gt;&lt;span class=&quot;hljs-keyword&quot;&gt;&lt;span class=&quot;hljs-title function_ invoke__&quot;&gt;tick&lt;/span&gt;(): &lt;span class=&quot;hljs-keyword&quot;&gt;void&lt;/span&gt;&amp;nbsp;&lt;br&gt;&lt;/span&gt;&lt;/span&gt;&lt;/div&gt;&lt;div&gt;&lt;span style=&quot;background-color: initial;&quot;&gt;+ robotDispatch(): void&lt;/span&gt;&lt;br&gt;&lt;/div&gt;&lt;div&gt;&lt;span style=&quot;background-color: initial;&quot;&gt;+ robotReturn(robot: Robot): void&lt;/span&gt;&lt;/div&gt;&lt;div&gt;+ loadRobot(floor: int, robot: Robot): void&lt;/div&gt;&lt;div&gt;# loadAndActivateRobot(fwei: int): Robot&lt;/div&gt;&lt;div&gt;&lt;br&gt;&lt;/div&gt;" style="text;strokeColor=none;fillColor=none;align=left;verticalAlign=top;spacingLeft=4;spacingRight=4;overflow=hidden;rotatable=0;points=[[0,0.5],[1,0.5]];portConstraint=eastwest;whiteSpace=wrap;html=1;" parent="uQT7_8eZXiCh4m7MQPwC-17" vertex="1">
          <mxGeometry y="134" width="299" height="257" as="geometry" />
        </mxCell>
        <mxCell id="uQT7_8eZXiCh4m7MQPwC-21" value="CyclingController" style="swimlane;fontStyle=1;align=center;verticalAlign=top;childLayout=stackLayout;horizontal=1;startSize=26;horizontalStack=0;resizeParent=1;resizeParentMax=0;resizeLast=0;collapsible=1;marginBottom=0;whiteSpace=wrap;html=1;" parent="1" vertex="1">
          <mxGeometry x="5663" y="-391.5" width="217" height="106" as="geometry" />
        </mxCell>
        <mxCell id="uQT7_8eZXiCh4m7MQPwC-22" value="" style="line;strokeWidth=1;fillColor=none;align=left;verticalAlign=middle;spacingTop=-1;spacingLeft=3;spacingRight=3;rotatable=0;labelPosition=right;points=[];portConstraint=eastwest;strokeColor=inherit;" parent="uQT7_8eZXiCh4m7MQPwC-21" vertex="1">
          <mxGeometry y="26" width="217" height="8" as="geometry" />
        </mxCell>
        <mxCell id="uQT7_8eZXiCh4m7MQPwC-23" value="+ CyclingController(numRobots: int, numFloors: int, robotCapacity: int)&amp;nbsp;&lt;div&gt;&lt;span class=&quot;hljs-section&quot;&gt;+ robotDispatch(): void&lt;/span&gt;&lt;br&gt;&lt;/div&gt;" style="text;strokeColor=none;fillColor=none;align=left;verticalAlign=top;spacingLeft=4;spacingRight=4;overflow=hidden;rotatable=0;points=[[0,0.5],[1,0.5]];portConstraint=eastwest;whiteSpace=wrap;html=1;" parent="uQT7_8eZXiCh4m7MQPwC-21" vertex="1">
          <mxGeometry y="34" width="217" height="72" as="geometry" />
        </mxCell>
        <mxCell id="uQT7_8eZXiCh4m7MQPwC-24" value="FlooringController" style="swimlane;fontStyle=1;align=center;verticalAlign=top;childLayout=stackLayout;horizontal=1;startSize=26;horizontalStack=0;resizeParent=1;resizeParentMax=0;resizeLast=0;collapsible=1;marginBottom=0;whiteSpace=wrap;html=1;" parent="1" vertex="1">
          <mxGeometry x="6334" y="-433" width="401" height="189" as="geometry" />
        </mxCell>
        <mxCell id="uQT7_8eZXiCh4m7MQPwC-25" value="&lt;div style=&quot;&quot;&gt;&lt;span style=&quot;background-color: initial;&quot;&gt;- columnRobots: List&lt;/span&gt;&lt;span class=&quot;xml&quot; style=&quot;background-color: initial;&quot;&gt;&amp;lt;&lt;span class=&quot;hljs-name&quot;&gt;Robot&lt;/span&gt;&amp;gt;&lt;/span&gt;&lt;span style=&quot;background-color: initial;&quot;&gt;&amp;nbsp;&lt;/span&gt;&lt;/div&gt;&lt;div style=&quot;&quot;&gt;&lt;span style=&quot;background-color: initial;&quot;&gt;- floorRobots: List&lt;/span&gt;&lt;span class=&quot;xml&quot; style=&quot;background-color: initial;&quot;&gt;&amp;lt;&lt;span class=&quot;hljs-name&quot;&gt;Robot&lt;/span&gt;&amp;gt;&lt;/span&gt;&lt;span style=&quot;background-color: initial;&quot;&gt;&amp;nbsp;&lt;/span&gt;&lt;/div&gt;&lt;div style=&quot;&quot;&gt;&lt;span class=&quot;hljs-section&quot; style=&quot;background-color: initial;&quot;&gt;- started: boolean&lt;/span&gt;&lt;/div&gt;" style="rounded=0;whiteSpace=wrap;html=1;align=left;" parent="uQT7_8eZXiCh4m7MQPwC-24" vertex="1">
          <mxGeometry y="26" width="401" height="60" as="geometry" />
        </mxCell>
        <mxCell id="uQT7_8eZXiCh4m7MQPwC-26" value="+ FlooringController(numRobots: int, numFloors: int, robotCapacity: int)&amp;nbsp;&lt;div&gt;+ getColumnRobots(): List&lt;span class=&quot;xml&quot;&gt;&amp;lt;&lt;span class=&quot;hljs-name&quot;&gt;Robot&lt;/span&gt;&amp;gt;&lt;/span&gt;&amp;nbsp;&lt;/div&gt;&lt;div&gt;+ getFloorRobots(): List&lt;span class=&quot;xml&quot;&gt;&amp;lt;&lt;span class=&quot;hljs-name&quot;&gt;Robot&lt;/span&gt;&amp;gt;&lt;/span&gt;&amp;nbsp;&lt;/div&gt;&lt;div&gt;+ tick(): void&amp;nbsp;&lt;/div&gt;&lt;div&gt;+ robotDispatch(): void&amp;nbsp;&lt;/div&gt;&lt;div&gt;&lt;span class=&quot;hljs-section&quot;&gt;+ initialiseFloorRobots(): void&lt;/span&gt;&lt;br&gt;&lt;/div&gt;" style="text;strokeColor=none;fillColor=none;align=left;verticalAlign=top;spacingLeft=4;spacingRight=4;overflow=hidden;rotatable=0;points=[[0,0.5],[1,0.5]];portConstraint=eastwest;whiteSpace=wrap;html=1;" parent="uQT7_8eZXiCh4m7MQPwC-24" vertex="1">
          <mxGeometry y="86" width="401" height="103" as="geometry" />
        </mxCell>
        <mxCell id="uQT7_8eZXiCh4m7MQPwC-27" value="Extends" style="endArrow=block;endSize=16;endFill=0;html=1;rounded=0;exitX=1;exitY=0;exitDx=0;exitDy=0;entryX=0;entryY=1.001;entryDx=0;entryDy=0;entryPerimeter=0;" parent="1" source="uQT7_8eZXiCh4m7MQPwC-21" target="uQT7_8eZXiCh4m7MQPwC-20" edge="1">
          <mxGeometry width="160" relative="1" as="geometry">
            <mxPoint x="5659" y="-249" as="sourcePoint" />
            <mxPoint x="5819" y="-249" as="targetPoint" />
          </mxGeometry>
        </mxCell>
        <mxCell id="uQT7_8eZXiCh4m7MQPwC-28" value="Extends" style="endArrow=block;endSize=16;endFill=0;html=1;rounded=0;exitX=0;exitY=0;exitDx=0;exitDy=0;entryX=1.004;entryY=0.995;entryDx=0;entryDy=0;entryPerimeter=0;" parent="1" source="uQT7_8eZXiCh4m7MQPwC-24" target="uQT7_8eZXiCh4m7MQPwC-20" edge="1">
          <mxGeometry width="160" relative="1" as="geometry">
            <mxPoint x="6113" y="-421.26" as="sourcePoint" />
            <mxPoint x="6276" y="-497.26" as="targetPoint" />
          </mxGeometry>
        </mxCell>
        <mxCell id="uQT7_8eZXiCh4m7MQPwC-35" value="Building" style="swimlane;fontStyle=1;align=center;verticalAlign=top;childLayout=stackLayout;horizontal=1;startSize=26;horizontalStack=0;resizeParent=1;resizeParentMax=0;resizeLast=0;collapsible=1;marginBottom=0;whiteSpace=wrap;html=1;fillColor=none;" parent="1" vertex="1">
          <mxGeometry x="5345" y="-915" width="409" height="266" as="geometry" />
        </mxCell>
        <mxCell id="uQT7_8eZXiCh4m7MQPwC-36" value="&lt;u&gt;- initialised: boolean&lt;/u&gt;&lt;div&gt;- NUMFLOORS: int&lt;/div&gt;&lt;div&gt;- NUMROOMS: int&lt;/div&gt;&lt;div&gt;- occupied: boolean[][]&lt;/div&gt;&lt;div&gt;&lt;u&gt;- NUMF: int&lt;/u&gt;&lt;/div&gt;&lt;div&gt;&lt;u&gt;- NUMR: int&lt;/u&gt;&lt;/div&gt;" style="text;strokeColor=none;fillColor=none;align=left;verticalAlign=top;spacingLeft=4;spacingRight=4;overflow=hidden;rotatable=0;points=[[0,0.5],[1,0.5]];portConstraint=eastwest;whiteSpace=wrap;html=1;" parent="uQT7_8eZXiCh4m7MQPwC-35" vertex="1">
          <mxGeometry y="26" width="409" height="96" as="geometry" />
        </mxCell>
        <mxCell id="uQT7_8eZXiCh4m7MQPwC-37" value="" style="line;strokeWidth=1;fillColor=none;align=left;verticalAlign=middle;spacingTop=-1;spacingLeft=3;spacingRight=3;rotatable=0;labelPosition=right;points=[];portConstraint=eastwest;strokeColor=inherit;" parent="uQT7_8eZXiCh4m7MQPwC-35" vertex="1">
          <mxGeometry y="122" width="409" height="8" as="geometry" />
        </mxCell>
        <mxCell id="uQT7_8eZXiCh4m7MQPwC-38" value="&lt;div&gt;- building()&lt;/div&gt;&lt;div&gt;+ getOccupied(): boolean&lt;/div&gt;+ initialise(numFloor: int, numRooms: int): void&lt;div&gt;&lt;div&gt;+ isOccupied(floor: int, room: int): boolean&lt;/div&gt;&lt;div&gt;+ remove(floor: int, room: int): void&lt;/div&gt;&lt;div&gt;+ place(floor: int, room: int, id: String): void&lt;/div&gt;&lt;div&gt;+ drawMove(floor: int, room: int, dfloor: int, droom: int, id: String): void&lt;/div&gt;&lt;/div&gt;" style="text;strokeColor=none;fillColor=none;align=left;verticalAlign=top;spacingLeft=4;spacingRight=4;overflow=hidden;rotatable=0;points=[[0,0.5],[1,0.5]];portConstraint=eastwest;whiteSpace=wrap;html=1;" parent="uQT7_8eZXiCh4m7MQPwC-35" vertex="1">
          <mxGeometry y="130" width="409" height="136" as="geometry" />
        </mxCell>
        <mxCell id="uQT7_8eZXiCh4m7MQPwC-39" value="MailRoom" style="swimlane;fontStyle=1;align=center;verticalAlign=top;childLayout=stackLayout;horizontal=1;startSize=26;horizontalStack=0;resizeParent=1;resizeParentMax=0;resizeLast=0;collapsible=1;marginBottom=0;whiteSpace=wrap;html=1;" parent="1" vertex="1">
          <mxGeometry x="6504" y="-915" width="243" height="176" as="geometry" />
        </mxCell>
        <mxCell id="uQT7_8eZXiCh4m7MQPwC-40" value="&lt;div&gt;- waitingForDelivery: &lt;span class=&quot;hljs-section&quot;&gt;List&lt;span class=&quot;xml&quot;&gt;&lt;span class=&quot;hljs-tag&quot;&gt;&amp;lt;&lt;span class=&quot;hljs-name&quot;&gt;Item&lt;/span&gt;&amp;gt;&lt;/span&gt;&lt;/span&gt;[]&lt;/span&gt;&lt;br&gt;&lt;/div&gt;" style="text;strokeColor=none;fillColor=none;align=left;verticalAlign=top;spacingLeft=4;spacingRight=4;overflow=hidden;rotatable=0;points=[[0,0.5],[1,0.5]];portConstraint=eastwest;whiteSpace=wrap;html=1;" parent="uQT7_8eZXiCh4m7MQPwC-39" vertex="1">
          <mxGeometry y="26" width="243" height="38" as="geometry" />
        </mxCell>
        <mxCell id="uQT7_8eZXiCh4m7MQPwC-41" value="" style="line;strokeWidth=1;fillColor=none;align=left;verticalAlign=middle;spacingTop=-1;spacingLeft=3;spacingRight=3;rotatable=0;labelPosition=right;points=[];portConstraint=eastwest;strokeColor=inherit;" parent="uQT7_8eZXiCh4m7MQPwC-39" vertex="1">
          <mxGeometry y="64" width="243" height="8" as="geometry" />
        </mxCell>
        <mxCell id="uQT7_8eZXiCh4m7MQPwC-42" value="+ MailRoom(numFloors: int)&amp;nbsp;&lt;div&gt;+ getWaitingForDelivery(): List&lt;span class=&quot;xml&quot;&gt;&amp;lt;&lt;span class=&quot;hljs-name&quot;&gt;Item&lt;/span&gt;&amp;gt;&lt;/span&gt;[]&amp;nbsp;&lt;/div&gt;&lt;div&gt;+ hasItemsForDelivery(): boolean&amp;nbsp;&lt;/div&gt;&lt;div&gt;+ floorWithEarliestItem(): int&amp;nbsp;&lt;/div&gt;&lt;div&gt;+ arrive(items: List&lt;span class=&quot;xml&quot;&gt;&amp;lt;&lt;span class=&quot;hljs-name&quot;&gt;Item&lt;/span&gt;&amp;gt;&lt;/span&gt;):&amp;nbsp;&lt;span class=&quot;hljs-section&quot;&gt;void&amp;nbsp; &amp;nbsp; &amp;nbsp;&lt;/span&gt;&lt;br&gt;&lt;/div&gt;" style="text;strokeColor=none;fillColor=none;align=left;verticalAlign=top;spacingLeft=4;spacingRight=4;overflow=hidden;rotatable=0;points=[[0,0.5],[1,0.5]];portConstraint=eastwest;whiteSpace=wrap;html=1;" parent="uQT7_8eZXiCh4m7MQPwC-39" vertex="1">
          <mxGeometry y="72" width="243" height="104" as="geometry" />
        </mxCell>
        <mxCell id="uQT7_8eZXiCh4m7MQPwC-43" value="Letter" style="swimlane;fontStyle=1;align=center;verticalAlign=top;childLayout=stackLayout;horizontal=1;startSize=26;horizontalStack=0;resizeParent=1;resizeParentMax=0;resizeLast=0;collapsible=1;marginBottom=0;whiteSpace=wrap;html=1;" parent="1" vertex="1">
          <mxGeometry x="7370" y="-986" width="243" height="71" as="geometry" />
        </mxCell>
        <mxCell id="uQT7_8eZXiCh4m7MQPwC-44" value="" style="line;strokeWidth=1;fillColor=none;align=left;verticalAlign=middle;spacingTop=-1;spacingLeft=3;spacingRight=3;rotatable=0;labelPosition=right;points=[];portConstraint=eastwest;strokeColor=inherit;" parent="uQT7_8eZXiCh4m7MQPwC-43" vertex="1">
          <mxGeometry y="26" width="243" height="8" as="geometry" />
        </mxCell>
        <mxCell id="uQT7_8eZXiCh4m7MQPwC-45" value="&lt;span style=&quot;&quot;&gt;+ Letter(floor: int, room: int, arrival: int)&amp;nbsp;&lt;/span&gt;&lt;div style=&quot;&quot;&gt;&lt;span class=&quot;hljs-section&quot;&gt;+ toString(): String&amp;nbsp;&lt;/span&gt;&lt;/div&gt;" style="text;html=1;align=left;verticalAlign=top;whiteSpace=wrap;rounded=0;" parent="uQT7_8eZXiCh4m7MQPwC-43" vertex="1">
          <mxGeometry y="34" width="243" height="37" as="geometry" />
        </mxCell>
        <mxCell id="uQT7_8eZXiCh4m7MQPwC-46" value="Parcel" style="swimlane;fontStyle=1;align=center;verticalAlign=top;childLayout=stackLayout;horizontal=1;startSize=26;horizontalStack=0;resizeParent=1;resizeParentMax=0;resizeLast=0;collapsible=1;marginBottom=0;whiteSpace=wrap;html=1;" parent="1" vertex="1">
          <mxGeometry x="7370" y="-749" width="278" height="114" as="geometry" />
        </mxCell>
        <mxCell id="uQT7_8eZXiCh4m7MQPwC-47" value="- weight: int" style="text;strokeColor=none;fillColor=none;align=left;verticalAlign=top;spacingLeft=4;spacingRight=4;overflow=hidden;rotatable=0;points=[[0,0.5],[1,0.5]];portConstraint=eastwest;whiteSpace=wrap;html=1;" parent="uQT7_8eZXiCh4m7MQPwC-46" vertex="1">
          <mxGeometry y="26" width="278" height="26" as="geometry" />
        </mxCell>
        <mxCell id="uQT7_8eZXiCh4m7MQPwC-48" value="" style="line;strokeWidth=1;fillColor=none;align=left;verticalAlign=middle;spacingTop=-1;spacingLeft=3;spacingRight=3;rotatable=0;labelPosition=right;points=[];portConstraint=eastwest;strokeColor=inherit;" parent="uQT7_8eZXiCh4m7MQPwC-46" vertex="1">
          <mxGeometry y="52" width="278" height="8" as="geometry" />
        </mxCell>
        <mxCell id="uQT7_8eZXiCh4m7MQPwC-49" value="+ &lt;span class=&quot;hljs-title function_ invoke__&quot;&gt;Parcel&lt;/span&gt;(&lt;span class=&quot;hljs-attr&quot;&gt;floor&lt;/span&gt;: &lt;span class=&quot;hljs-keyword&quot;&gt;int&lt;/span&gt;, &lt;span class=&quot;hljs-attr&quot;&gt;room&lt;/span&gt;: &lt;span class=&quot;hljs-keyword&quot;&gt;int&lt;/span&gt;, &lt;span class=&quot;hljs-attr&quot;&gt;arrival&lt;/span&gt;: &lt;span class=&quot;hljs-keyword&quot;&gt;int&lt;/span&gt;, &lt;span class=&quot;hljs-attr&quot;&gt;weight&lt;/span&gt;: &lt;span class=&quot;hljs-keyword&quot;&gt;int&lt;/span&gt;)&amp;nbsp;&lt;div&gt;+ &lt;span class=&quot;hljs-title function_ invoke__&quot;&gt;myWeight&lt;/span&gt;(): &lt;span class=&quot;hljs-keyword&quot;&gt;int&lt;/span&gt;&amp;nbsp;&lt;/div&gt;&lt;div&gt;+ &lt;span class=&quot;hljs-title function_ invoke__&quot;&gt;toString&lt;/span&gt;(): String&amp;nbsp;&lt;/div&gt;" style="text;html=1;align=left;verticalAlign=middle;whiteSpace=wrap;rounded=0;" parent="uQT7_8eZXiCh4m7MQPwC-46" vertex="1">
          <mxGeometry y="60" width="278" height="54" as="geometry" />
        </mxCell>
        <mxCell id="uQT7_8eZXiCh4m7MQPwC-50" value="&lt;div&gt;&amp;lt;&amp;lt;Abstract&amp;gt;&amp;gt;&lt;/div&gt;Item" style="swimlane;fontStyle=1;align=center;verticalAlign=top;childLayout=stackLayout;horizontal=1;startSize=45;horizontalStack=0;resizeParent=1;resizeParentMax=0;resizeLast=0;collapsible=1;marginBottom=0;whiteSpace=wrap;html=1;" parent="1" vertex="1">
          <mxGeometry x="6880" y="-932.5" width="226" height="211" as="geometry" />
        </mxCell>
        <mxCell id="uQT7_8eZXiCh4m7MQPwC-51" value="- floor: int&lt;div&gt;- room: int&lt;/div&gt;&lt;div&gt;- arrival: int&lt;/div&gt;" style="text;strokeColor=none;fillColor=none;align=left;verticalAlign=top;spacingLeft=4;spacingRight=4;overflow=hidden;rotatable=0;points=[[0,0.5],[1,0.5]];portConstraint=eastwest;whiteSpace=wrap;html=1;" parent="uQT7_8eZXiCh4m7MQPwC-50" vertex="1">
          <mxGeometry y="45" width="226" height="58" as="geometry" />
        </mxCell>
        <mxCell id="uQT7_8eZXiCh4m7MQPwC-52" value="" style="line;strokeWidth=1;fillColor=none;align=left;verticalAlign=middle;spacingTop=-1;spacingLeft=3;spacingRight=3;rotatable=0;labelPosition=right;points=[];portConstraint=eastwest;strokeColor=inherit;" parent="uQT7_8eZXiCh4m7MQPwC-50" vertex="1">
          <mxGeometry y="103" width="226" height="8" as="geometry" />
        </mxCell>
        <mxCell id="uQT7_8eZXiCh4m7MQPwC-53" value="&lt;div&gt;+ &lt;span class=&quot;hljs-title function_ invoke__&quot;&gt;Item&lt;/span&gt;(&lt;span class=&quot;hljs-attr&quot;&gt;floor&lt;/span&gt;: &lt;span class=&quot;hljs-keyword&quot;&gt;int&lt;/span&gt;, &lt;span class=&quot;hljs-attr&quot;&gt;room&lt;/span&gt;: &lt;span class=&quot;hljs-keyword&quot;&gt;int&lt;/span&gt;, &lt;span class=&quot;hljs-attr&quot;&gt;arrival&lt;/span&gt;: &lt;span class=&quot;hljs-keyword&quot;&gt;int&lt;/span&gt;)&amp;nbsp;&lt;/div&gt;&lt;div&gt;+ &lt;span class=&quot;hljs-title function_ invoke__&quot;&gt;myFloor&lt;/span&gt;(): &lt;span class=&quot;hljs-keyword&quot;&gt;int&lt;/span&gt;&amp;nbsp;&lt;/div&gt;&lt;div&gt;+ &lt;span class=&quot;hljs-title function_ invoke__&quot;&gt;myRoom&lt;/span&gt;(): &lt;span class=&quot;hljs-keyword&quot;&gt;int&lt;/span&gt;&amp;nbsp;&lt;/div&gt;&lt;div&gt;+ &lt;span class=&quot;hljs-title function_ invoke__&quot;&gt;myArrival&lt;/span&gt;(): &lt;span class=&quot;hljs-keyword&quot;&gt;int&lt;/span&gt;&lt;br&gt;&lt;/div&gt;+ compareTo(i: Item): int&lt;div&gt;+ toString(): String&lt;/div&gt;" style="text;strokeColor=none;fillColor=none;align=left;verticalAlign=top;spacingLeft=4;spacingRight=4;overflow=hidden;rotatable=0;points=[[0,0.5],[1,0.5]];portConstraint=eastwest;whiteSpace=wrap;html=1;" parent="uQT7_8eZXiCh4m7MQPwC-50" vertex="1">
          <mxGeometry y="111" width="226" height="100" as="geometry" />
        </mxCell>
        <mxCell id="uQT7_8eZXiCh4m7MQPwC-54" value="Extends" style="endArrow=block;endSize=16;endFill=0;html=1;rounded=0;entryX=0.995;entryY=-0.039;entryDx=0;entryDy=0;entryPerimeter=0;" parent="1" target="uQT7_8eZXiCh4m7MQPwC-53" edge="1">
          <mxGeometry width="160" relative="1" as="geometry">
            <mxPoint x="7294" y="-825" as="sourcePoint" />
            <mxPoint x="7166" y="-721.5" as="targetPoint" />
          </mxGeometry>
        </mxCell>
        <mxCell id="uQT7_8eZXiCh4m7MQPwC-55" value="" style="endArrow=none;html=1;edgeStyle=orthogonalEdgeStyle;rounded=0;entryX=0;entryY=0.5;entryDx=0;entryDy=0;exitX=0;exitY=0;exitDx=0;exitDy=0;" parent="1" source="uQT7_8eZXiCh4m7MQPwC-45" target="uQT7_8eZXiCh4m7MQPwC-47" edge="1">
          <mxGeometry relative="1" as="geometry">
            <mxPoint x="7317" y="-952" as="sourcePoint" />
            <mxPoint x="7267" y="-708" as="targetPoint" />
            <Array as="points">
              <mxPoint x="7370" y="-951" />
              <mxPoint x="7294" y="-951" />
              <mxPoint x="7294" y="-708" />
              <mxPoint x="7370" y="-708" />
            </Array>
          </mxGeometry>
        </mxCell>
        <mxCell id="uQT7_8eZXiCh4m7MQPwC-56" value="records" style="html=1;verticalAlign=bottom;endArrow=block;curved=0;rounded=0;exitX=1.007;exitY=0.16;exitDx=0;exitDy=0;exitPerimeter=0;entryX=0;entryY=0.5;entryDx=0;entryDy=0;" parent="1" source="uQT7_8eZXiCh4m7MQPwC-20" target="uQT7_8eZXiCh4m7MQPwC-42" edge="1">
          <mxGeometry width="80" relative="1" as="geometry">
            <mxPoint x="6108" y="-587" as="sourcePoint" />
            <mxPoint x="6188" y="-587" as="targetPoint" />
          </mxGeometry>
        </mxCell>
        <mxCell id="uQT7_8eZXiCh4m7MQPwC-57" value="0..*" style="edgeLabel;html=1;align=center;verticalAlign=middle;resizable=0;points=[];" parent="uQT7_8eZXiCh4m7MQPwC-56" vertex="1" connectable="0">
          <mxGeometry x="0.8224" y="5" relative="1" as="geometry">
            <mxPoint as="offset" />
          </mxGeometry>
        </mxCell>
        <mxCell id="uQT7_8eZXiCh4m7MQPwC-58" value="Simulation" style="swimlane;fontStyle=1;align=center;verticalAlign=top;childLayout=stackLayout;horizontal=1;startSize=26;horizontalStack=0;resizeParent=1;resizeParentMax=0;resizeLast=0;collapsible=1;marginBottom=0;whiteSpace=wrap;html=1;" parent="1" vertex="1">
          <mxGeometry x="6137" y="-1293" width="298" height="267" as="geometry" />
        </mxCell>
        <mxCell id="uQT7_8eZXiCh4m7MQPwC-59" value="&lt;span style=&quot;background-color: initial;&quot;&gt;-&amp;nbsp;&lt;/span&gt;&lt;span style=&quot;background-color: initial;&quot;&gt;waitingToArrive: Map&amp;lt;Integer, List&amp;lt;Item&amp;gt;&amp;gt;&lt;/span&gt;&lt;br&gt;&lt;span style=&quot;background-color: initial;&quot;&gt;&lt;u&gt;- time: int&lt;/u&gt;&lt;/span&gt;&lt;br&gt;&lt;span style=&quot;background-color: initial;&quot;&gt;+&amp;nbsp;&lt;/span&gt;&lt;span style=&quot;background-color: initial;&quot;&gt;endArrival: int&lt;/span&gt;&lt;br&gt;&lt;span style=&quot;background-color: initial;&quot;&gt;-&amp;nbsp;&lt;/span&gt;&lt;span style=&quot;background-color: initial;&quot;&gt;robotsController: RobotsController&lt;/span&gt;&lt;br&gt;&lt;u&gt;&lt;span style=&quot;background-color: initial;&quot;&gt;-&amp;nbsp;&lt;/span&gt;&lt;span style=&quot;background-color: initial;&quot;&gt;timeout: int&lt;/span&gt;&lt;/u&gt;&lt;br&gt;&lt;u&gt;&lt;span style=&quot;background-color: initial;&quot;&gt;-&amp;nbsp;&lt;/span&gt;&lt;span style=&quot;background-color: initial;&quot;&gt;deliveredCount: int&lt;/span&gt;&lt;br&gt;&lt;span style=&quot;background-color: initial;&quot;&gt;-&amp;nbsp;&lt;/span&gt;&lt;span style=&quot;background-color: initial;&quot;&gt;deliveredTotalTime: int&lt;/span&gt;&lt;/u&gt;" style="text;strokeColor=none;fillColor=none;align=left;verticalAlign=top;spacingLeft=4;spacingRight=4;overflow=hidden;rotatable=0;points=[[0,0.5],[1,0.5]];portConstraint=eastwest;whiteSpace=wrap;html=1;" parent="uQT7_8eZXiCh4m7MQPwC-58" vertex="1">
          <mxGeometry y="26" width="298" height="115" as="geometry" />
        </mxCell>
        <mxCell id="uQT7_8eZXiCh4m7MQPwC-60" value="" style="line;strokeWidth=1;fillColor=none;align=left;verticalAlign=middle;spacingTop=-1;spacingLeft=3;spacingRight=3;rotatable=0;labelPosition=right;points=[];portConstraint=eastwest;strokeColor=inherit;" parent="uQT7_8eZXiCh4m7MQPwC-58" vertex="1">
          <mxGeometry y="141" width="298" height="8" as="geometry" />
        </mxCell>
        <mxCell id="uQT7_8eZXiCh4m7MQPwC-61" value="+ Simulation(properties: Properties)&lt;div&gt;+ deliver(mailItem: Item): void&lt;span style=&quot;background-color: initial;&quot;&gt;&lt;br&gt;&lt;/span&gt;&lt;/div&gt;&lt;div&gt;+ addToArrivals(arrivalTime: int, item: Item): void&lt;/div&gt;&lt;div&gt;&lt;span style=&quot;background-color: initial;&quot;&gt;+ now(): int&lt;/span&gt;&lt;br&gt;&lt;span style=&quot;background-color: initial;&quot;&gt;+ step(): void&lt;/span&gt;&lt;br&gt;&lt;span style=&quot;background-color: initial;&quot;&gt;+ run(): void&lt;/span&gt;&lt;/div&gt;" style="text;strokeColor=none;fillColor=none;align=left;verticalAlign=top;spacingLeft=4;spacingRight=4;overflow=hidden;rotatable=0;points=[[0,0.5],[1,0.5]];portConstraint=eastwest;whiteSpace=wrap;html=1;" parent="uQT7_8eZXiCh4m7MQPwC-58" vertex="1">
          <mxGeometry y="149" width="298" height="118" as="geometry" />
        </mxCell>
        <mxCell id="uQT7_8eZXiCh4m7MQPwC-62" value="&lt;p style=&quot;margin:0px;margin-top:4px;text-align:center;&quot;&gt;&lt;i&gt;&amp;lt;&amp;lt;enumeration&amp;gt;&amp;gt;&lt;/i&gt;&lt;br&gt;&lt;b&gt;Mode&lt;/b&gt;&lt;/p&gt;&lt;hr size=&quot;1&quot; style=&quot;border-style:solid;&quot;&gt;&lt;p style=&quot;margin:0px;margin-left:4px;&quot;&gt;FLOORING&lt;/p&gt;&lt;p style=&quot;margin:0px;margin-left:4px;&quot;&gt;CYCLE&lt;/p&gt;&lt;hr size=&quot;1&quot; style=&quot;border-style:solid;&quot;&gt;&lt;p style=&quot;margin:0px;margin-left:4px;&quot;&gt;&lt;br&gt;&lt;/p&gt;" style="verticalAlign=top;align=left;overflow=fill;html=1;whiteSpace=wrap;" parent="1" vertex="1">
          <mxGeometry x="6220" y="-930" width="190" height="88" as="geometry" />
        </mxCell>
        <mxCell id="uQT7_8eZXiCh4m7MQPwC-63" value="&amp;lt;&amp;lt;uses&amp;gt;&amp;gt;" style="endArrow=open;endSize=12;dashed=1;html=1;rounded=0;entryX=0;entryY=1;entryDx=0;entryDy=0;exitX=1;exitY=0;exitDx=0;exitDy=0;" parent="1" source="uQT7_8eZXiCh4m7MQPwC-17" target="uQT7_8eZXiCh4m7MQPwC-62" edge="1">
          <mxGeometry width="160" relative="1" as="geometry">
            <mxPoint x="6279" y="-1020" as="sourcePoint" />
            <mxPoint x="6319" y="-958" as="targetPoint" />
          </mxGeometry>
        </mxCell>
        <mxCell id="uQT7_8eZXiCh4m7MQPwC-64" value="&lt;p style=&quot;margin:0px;margin-top:4px;text-align:center;&quot;&gt;&lt;i&gt;&amp;lt;&amp;lt;enumeration&amp;gt;&amp;gt;&lt;/i&gt;&lt;br&gt;&lt;b&gt;Direction&lt;/b&gt;&lt;/p&gt;&lt;hr size=&quot;1&quot; style=&quot;border-style:solid;&quot;&gt;&lt;p style=&quot;margin: 0px 0px 0px 4px;&quot;&gt;LEFT&lt;/p&gt;&lt;p style=&quot;margin: 0px 0px 0px 4px;&quot;&gt;RIGHT&lt;/p&gt;&lt;p style=&quot;margin: 0px 0px 0px 4px;&quot;&gt;UP&lt;/p&gt;&lt;p style=&quot;margin: 0px 0px 0px 4px;&quot;&gt;DOWN&lt;/p&gt;&lt;hr size=&quot;1&quot; style=&quot;border-style:solid;&quot;&gt;&lt;p style=&quot;margin:0px;margin-left:4px;&quot;&gt;&lt;br&gt;&lt;/p&gt;" style="verticalAlign=top;align=left;overflow=fill;html=1;whiteSpace=wrap;" parent="1" vertex="1">
          <mxGeometry x="6334" y="176.5" width="190" height="119" as="geometry" />
        </mxCell>
        <mxCell id="uQT7_8eZXiCh4m7MQPwC-65" value="&amp;lt;&amp;lt;uses&amp;gt;&amp;gt;" style="endArrow=open;endSize=12;dashed=1;html=1;rounded=0;entryX=0.002;entryY=0.618;entryDx=0;entryDy=0;exitX=1.002;exitY=0.288;exitDx=0;exitDy=0;exitPerimeter=0;entryPerimeter=0;" parent="1" source="uQT7_8eZXiCh4m7MQPwC-4" target="uQT7_8eZXiCh4m7MQPwC-64" edge="1">
          <mxGeometry width="160" relative="1" as="geometry">
            <mxPoint x="6268" y="200.5" as="sourcePoint" />
            <mxPoint x="6268" y="289.5" as="targetPoint" />
          </mxGeometry>
        </mxCell>
        <mxCell id="uQT7_8eZXiCh4m7MQPwC-66" value="BuildingGrid" style="swimlane;fontStyle=1;align=center;verticalAlign=top;childLayout=stackLayout;horizontal=1;startSize=26;horizontalStack=0;resizeParent=1;resizeParentMax=0;resizeLast=0;collapsible=1;marginBottom=0;whiteSpace=wrap;html=1;" parent="1" vertex="1">
          <mxGeometry x="5386" y="-1133" width="327" height="111" as="geometry" />
        </mxCell>
        <mxCell id="uQT7_8eZXiCh4m7MQPwC-67" value="- f:JFrame&lt;div&gt;- tm: TableModel&lt;/div&gt;" style="text;strokeColor=none;fillColor=none;align=left;verticalAlign=top;spacingLeft=4;spacingRight=4;overflow=hidden;rotatable=0;points=[[0,0.5],[1,0.5]];portConstraint=eastwest;whiteSpace=wrap;html=1;" parent="uQT7_8eZXiCh4m7MQPwC-66" vertex="1">
          <mxGeometry y="26" width="327" height="42" as="geometry" />
        </mxCell>
        <mxCell id="uQT7_8eZXiCh4m7MQPwC-68" value="" style="line;strokeWidth=1;fillColor=none;align=left;verticalAlign=middle;spacingTop=-1;spacingLeft=3;spacingRight=3;rotatable=0;labelPosition=right;points=[];portConstraint=eastwest;strokeColor=inherit;" parent="uQT7_8eZXiCh4m7MQPwC-66" vertex="1">
          <mxGeometry y="68" width="327" height="8" as="geometry" />
        </mxCell>
        <mxCell id="uQT7_8eZXiCh4m7MQPwC-69" value="&lt;div&gt;+ buildingGrid(int: NUMFLOORS, int: NUMROOMS)&lt;/div&gt;+ update(floor: int, room: int, s: String): void&lt;div&gt;&lt;br&gt;&lt;/div&gt;" style="text;strokeColor=none;fillColor=none;align=left;verticalAlign=top;spacingLeft=4;spacingRight=4;overflow=hidden;rotatable=0;points=[[0,0.5],[1,0.5]];portConstraint=eastwest;whiteSpace=wrap;html=1;" parent="uQT7_8eZXiCh4m7MQPwC-66" vertex="1">
          <mxGeometry y="76" width="327" height="35" as="geometry" />
        </mxCell>
        <mxCell id="uQT7_8eZXiCh4m7MQPwC-70" value="has" style="endArrow=open;endSize=12;dashed=1;html=1;rounded=0;exitX=0.012;exitY=1.015;exitDx=0;exitDy=0;exitPerimeter=0;entryX=0.002;entryY=0.232;entryDx=0;entryDy=0;entryPerimeter=0;" parent="1" source="uQT7_8eZXiCh4m7MQPwC-38" target="uQT7_8eZXiCh4m7MQPwC-4" edge="1">
          <mxGeometry width="160" relative="1" as="geometry">
            <mxPoint x="5942" y="-376" as="sourcePoint" />
            <mxPoint x="5905" y="112" as="targetPoint" />
            <Array as="points">
              <mxPoint x="5350" y="239" />
            </Array>
          </mxGeometry>
        </mxCell>
        <mxCell id="uQT7_8eZXiCh4m7MQPwC-74" style="edgeStyle=orthogonalEdgeStyle;rounded=0;orthogonalLoop=1;jettySize=auto;html=1;exitX=1;exitY=0.5;exitDx=0;exitDy=0;entryX=0.727;entryY=1.008;entryDx=0;entryDy=0;entryPerimeter=0;" parent="1" source="uQT7_8eZXiCh4m7MQPwC-2" target="uQT7_8eZXiCh4m7MQPwC-53" edge="1">
          <mxGeometry relative="1" as="geometry">
            <Array as="points">
              <mxPoint x="6990" y="102" />
              <mxPoint x="6990" y="-721" />
            </Array>
          </mxGeometry>
        </mxCell>
        <mxCell id="uQT7_8eZXiCh4m7MQPwC-75" value="deliver" style="edgeLabel;html=1;align=center;verticalAlign=middle;resizable=0;points=[];" parent="uQT7_8eZXiCh4m7MQPwC-74" vertex="1" connectable="0">
          <mxGeometry x="0.418" y="-5" relative="1" as="geometry">
            <mxPoint as="offset" />
          </mxGeometry>
        </mxCell>
        <mxCell id="uQT7_8eZXiCh4m7MQPwC-76" value="0..*" style="edgeLabel;html=1;align=center;verticalAlign=middle;resizable=0;points=[];" parent="uQT7_8eZXiCh4m7MQPwC-74" vertex="1" connectable="0">
          <mxGeometry x="0.9484" y="2" relative="1" as="geometry">
            <mxPoint as="offset" />
          </mxGeometry>
        </mxCell>
        <mxCell id="uQT7_8eZXiCh4m7MQPwC-77" style="edgeStyle=orthogonalEdgeStyle;rounded=0;orthogonalLoop=1;jettySize=auto;html=1;exitX=1;exitY=0.5;exitDx=0;exitDy=0;entryX=0.5;entryY=0;entryDx=0;entryDy=0;" parent="1" source="uQT7_8eZXiCh4m7MQPwC-59" target="uQT7_8eZXiCh4m7MQPwC-50" edge="1">
          <mxGeometry relative="1" as="geometry" />
        </mxCell>
        <mxCell id="uQT7_8eZXiCh4m7MQPwC-78" value="records" style="edgeLabel;html=1;align=center;verticalAlign=middle;resizable=0;points=[];" parent="uQT7_8eZXiCh4m7MQPwC-77" vertex="1" connectable="0">
          <mxGeometry x="-0.1904" y="5" relative="1" as="geometry">
            <mxPoint x="-1" as="offset" />
          </mxGeometry>
        </mxCell>
        <mxCell id="uQT7_8eZXiCh4m7MQPwC-79" value="0..*" style="edgeLabel;html=1;align=center;verticalAlign=middle;resizable=0;points=[];" parent="uQT7_8eZXiCh4m7MQPwC-77" vertex="1" connectable="0">
          <mxGeometry x="0.9281" y="5" relative="1" as="geometry">
            <mxPoint y="-1" as="offset" />
          </mxGeometry>
        </mxCell>
        <mxCell id="uQT7_8eZXiCh4m7MQPwC-80" value="contains" style="html=1;verticalAlign=bottom;endArrow=block;curved=0;rounded=0;exitX=0.5;exitY=0.988;exitDx=0;exitDy=0;exitPerimeter=0;entryX=0.5;entryY=0;entryDx=0;entryDy=0;" parent="1" source="uQT7_8eZXiCh4m7MQPwC-61" target="uQT7_8eZXiCh4m7MQPwC-62" edge="1">
          <mxGeometry width="80" relative="1" as="geometry">
            <mxPoint x="6212" y="-931" as="sourcePoint" />
            <mxPoint x="6292" y="-931" as="targetPoint" />
          </mxGeometry>
        </mxCell>
        <mxCell id="uQT7_8eZXiCh4m7MQPwC-81" value="" style="endArrow=diamondThin;endFill=0;endSize=24;html=1;rounded=0;entryX=0.998;entryY=0.101;entryDx=0;entryDy=0;entryPerimeter=0;exitX=-0.001;exitY=0.968;exitDx=0;exitDy=0;exitPerimeter=0;" parent="1" source="uQT7_8eZXiCh4m7MQPwC-51" target="uQT7_8eZXiCh4m7MQPwC-42" edge="1">
          <mxGeometry width="160" relative="1" as="geometry">
            <mxPoint x="6719" y="-754" as="sourcePoint" />
            <mxPoint x="6879" y="-754" as="targetPoint" />
          </mxGeometry>
        </mxCell>
        <mxCell id="uQT7_8eZXiCh4m7MQPwC-82" value="contains" style="edgeLabel;html=1;align=center;verticalAlign=middle;resizable=0;points=[];" parent="uQT7_8eZXiCh4m7MQPwC-81" vertex="1" connectable="0">
          <mxGeometry x="0.0649" relative="1" as="geometry">
            <mxPoint as="offset" />
          </mxGeometry>
        </mxCell>
        <mxCell id="uQT7_8eZXiCh4m7MQPwC-83" value="0..*" style="edgeLabel;html=1;align=center;verticalAlign=middle;resizable=0;points=[];" parent="uQT7_8eZXiCh4m7MQPwC-81" vertex="1" connectable="0">
          <mxGeometry x="-0.8583" y="-1" relative="1" as="geometry">
            <mxPoint as="offset" />
          </mxGeometry>
        </mxCell>
        <mxCell id="uQT7_8eZXiCh4m7MQPwC-84" value="" style="endArrow=diamondThin;endFill=1;html=1;rounded=0;endSize=25;startArrow=classic;startFill=1;" parent="1" edge="1">
          <mxGeometry width="160" relative="1" as="geometry">
            <mxPoint x="5494" y="-1022" as="sourcePoint" />
            <mxPoint x="5494" y="-916" as="targetPoint" />
          </mxGeometry>
        </mxCell>
        <mxCell id="uQT7_8eZXiCh4m7MQPwC-85" value="presented by" style="edgeLabel;html=1;align=center;verticalAlign=middle;resizable=0;points=[];" parent="uQT7_8eZXiCh4m7MQPwC-84" vertex="1" connectable="0">
          <mxGeometry x="-0.2088" relative="1" as="geometry">
            <mxPoint as="offset" />
          </mxGeometry>
        </mxCell>
        <mxCell id="uQT7_8eZXiCh4m7MQPwC-86" value="1" style="edgeLabel;html=1;align=center;verticalAlign=middle;resizable=0;points=[];" parent="uQT7_8eZXiCh4m7MQPwC-84" vertex="1" connectable="0">
          <mxGeometry x="-0.8074" y="1" relative="1" as="geometry">
            <mxPoint x="-1" y="9" as="offset" />
          </mxGeometry>
        </mxCell>
        <mxCell id="uQT7_8eZXiCh4m7MQPwC-87" value="" style="endArrow=diamondThin;endFill=1;endSize=24;html=1;rounded=0;entryX=0;entryY=0.5;entryDx=0;entryDy=0;exitX=1;exitY=0;exitDx=0;exitDy=0;startArrow=classic;startFill=1;" parent="1" source="uQT7_8eZXiCh4m7MQPwC-35" target="uQT7_8eZXiCh4m7MQPwC-61" edge="1">
          <mxGeometry width="160" relative="1" as="geometry">
            <mxPoint x="5867" y="-1004" as="sourcePoint" />
            <mxPoint x="6027" y="-1004" as="targetPoint" />
          </mxGeometry>
        </mxCell>
        <mxCell id="uQT7_8eZXiCh4m7MQPwC-88" value="creates" style="edgeLabel;html=1;align=center;verticalAlign=middle;resizable=0;points=[];" parent="uQT7_8eZXiCh4m7MQPwC-87" vertex="1" connectable="0">
          <mxGeometry x="-0.1979" relative="1" as="geometry">
            <mxPoint as="offset" />
          </mxGeometry>
        </mxCell>
        <mxCell id="uQT7_8eZXiCh4m7MQPwC-89" value="1" style="edgeLabel;html=1;align=center;verticalAlign=middle;resizable=0;points=[];" parent="uQT7_8eZXiCh4m7MQPwC-87" vertex="1" connectable="0">
          <mxGeometry x="-0.8467" relative="1" as="geometry">
            <mxPoint as="offset" />
          </mxGeometry>
        </mxCell>
        <mxCell id="uQT7_8eZXiCh4m7MQPwC-90" value="" style="endArrow=diamondThin;endFill=1;endSize=24;html=1;rounded=0;entryX=-0.003;entryY=1.012;entryDx=0;entryDy=0;entryPerimeter=0;exitX=0.641;exitY=0.003;exitDx=0;exitDy=0;exitPerimeter=0;" parent="1" source="uQT7_8eZXiCh4m7MQPwC-17" target="uQT7_8eZXiCh4m7MQPwC-61" edge="1">
          <mxGeometry width="160" relative="1" as="geometry">
            <mxPoint x="6083" y="-891" as="sourcePoint" />
            <mxPoint x="6243" y="-891" as="targetPoint" />
          </mxGeometry>
        </mxCell>
        <mxCell id="uQT7_8eZXiCh4m7MQPwC-91" value="creates" style="edgeLabel;html=1;align=center;verticalAlign=middle;resizable=0;points=[];" parent="uQT7_8eZXiCh4m7MQPwC-90" vertex="1" connectable="0">
          <mxGeometry x="0.2028" y="1" relative="1" as="geometry">
            <mxPoint as="offset" />
          </mxGeometry>
        </mxCell>
        <mxCell id="uQT7_8eZXiCh4m7MQPwC-92" value="records" style="endArrow=open;endSize=12;dashed=1;html=1;rounded=0;entryX=0.5;entryY=0;entryDx=0;entryDy=0;exitX=1;exitY=0.5;exitDx=0;exitDy=0;" parent="1" source="uQT7_8eZXiCh4m7MQPwC-61" target="uQT7_8eZXiCh4m7MQPwC-39" edge="1">
          <mxGeometry width="160" relative="1" as="geometry">
            <mxPoint x="6435" y="-1097" as="sourcePoint" />
            <mxPoint x="6595" y="-1097" as="targetPoint" />
            <Array as="points">
              <mxPoint x="6626" y="-1085" />
            </Array>
          </mxGeometry>
        </mxCell>
        <mxCell id="uQT7_8eZXiCh4m7MQPwC-93" value="records" style="endArrow=open;endSize=12;dashed=1;html=1;rounded=0;exitX=0;exitY=0.5;exitDx=0;exitDy=0;entryX=0;entryY=0.5;entryDx=0;entryDy=0;" parent="1" source="uQT7_8eZXiCh4m7MQPwC-59" target="uQT7_8eZXiCh4m7MQPwC-4" edge="1">
          <mxGeometry width="160" relative="1" as="geometry">
            <mxPoint x="6176" y="-357" as="sourcePoint" />
            <mxPoint x="6336" y="-357" as="targetPoint" />
            <Array as="points">
              <mxPoint x="5224" y="-1209" />
              <mxPoint x="5210" y="318" />
            </Array>
          </mxGeometry>
        </mxCell>
        <mxCell id="_8D3QQfQ12P5wWKmFgrH-4" value="" style="endArrow=diamondThin;endFill=1;endSize=24;html=1;rounded=0;entryX=-0.012;entryY=0.327;entryDx=0;entryDy=0;entryPerimeter=0;exitX=0;exitY=0.5;exitDx=0;exitDy=0;" edge="1" parent="1" source="uQT7_8eZXiCh4m7MQPwC-2" target="uQT7_8eZXiCh4m7MQPwC-20">
          <mxGeometry width="160" relative="1" as="geometry">
            <mxPoint x="5830" y="-330" as="sourcePoint" />
            <mxPoint x="5990" y="-330" as="targetPoint" />
            <Array as="points">
              <mxPoint x="5530" y="102" />
              <mxPoint x="5530" y="-250" />
              <mxPoint x="5530" y="-583" />
            </Array>
          </mxGeometry>
        </mxCell>
        <mxCell id="_8D3QQfQ12P5wWKmFgrH-5" value="Creates" style="edgeLabel;html=1;align=center;verticalAlign=middle;resizable=0;points=[];" vertex="1" connectable="0" parent="_8D3QQfQ12P5wWKmFgrH-4">
          <mxGeometry x="-0.0817" y="1" relative="1" as="geometry">
            <mxPoint as="offset" />
          </mxGeometry>
        </mxCell>
        <mxCell id="_8D3QQfQ12P5wWKmFgrH-6" value="1" style="edgeLabel;html=1;align=center;verticalAlign=middle;resizable=0;points=[];" vertex="1" connectable="0" parent="_8D3QQfQ12P5wWKmFgrH-4">
          <mxGeometry x="0.9282" relative="1" as="geometry">
            <mxPoint as="offset" />
          </mxGeometry>
        </mxCell>
        <mxCell id="_8D3QQfQ12P5wWKmFgrH-7" value="0...*" style="edgeLabel;html=1;align=center;verticalAlign=middle;resizable=0;points=[];" vertex="1" connectable="0" parent="_8D3QQfQ12P5wWKmFgrH-4">
          <mxGeometry x="-0.9318" y="4" relative="1" as="geometry">
            <mxPoint as="offset" />
          </mxGeometry>
        </mxCell>
        <mxCell id="_8D3QQfQ12P5wWKmFgrH-8" value="" style="endArrow=diamondThin;endFill=1;endSize=24;html=1;rounded=0;entryX=0.548;entryY=1.042;entryDx=0;entryDy=0;entryPerimeter=0;exitX=0.5;exitY=0;exitDx=0;exitDy=0;" edge="1" parent="1" source="uQT7_8eZXiCh4m7MQPwC-5" target="uQT7_8eZXiCh4m7MQPwC-23">
          <mxGeometry width="160" relative="1" as="geometry">
            <mxPoint x="5830" y="-200" as="sourcePoint" />
            <mxPoint x="5990" y="-200" as="targetPoint" />
          </mxGeometry>
        </mxCell>
        <mxCell id="_8D3QQfQ12P5wWKmFgrH-9" value="creates" style="edgeLabel;html=1;align=center;verticalAlign=middle;resizable=0;points=[];" vertex="1" connectable="0" parent="_8D3QQfQ12P5wWKmFgrH-8">
          <mxGeometry x="-0.045" y="-4" relative="1" as="geometry">
            <mxPoint as="offset" />
          </mxGeometry>
        </mxCell>
        <mxCell id="_8D3QQfQ12P5wWKmFgrH-11" value="0...*" style="edgeLabel;html=1;align=center;verticalAlign=middle;resizable=0;points=[];" vertex="1" connectable="0" parent="_8D3QQfQ12P5wWKmFgrH-8">
          <mxGeometry x="-0.7373" y="-1" relative="1" as="geometry">
            <mxPoint x="1" as="offset" />
          </mxGeometry>
        </mxCell>
        <mxCell id="_8D3QQfQ12P5wWKmFgrH-10" value="1" style="text;html=1;align=center;verticalAlign=middle;resizable=0;points=[];autosize=1;strokeColor=none;fillColor=none;" vertex="1" parent="1">
          <mxGeometry x="5750" y="-285.5" width="30" height="30" as="geometry" />
        </mxCell>
        <mxCell id="_8D3QQfQ12P5wWKmFgrH-12" value="" style="endArrow=diamondThin;endFill=1;endSize=24;html=1;rounded=0;entryX=0;entryY=0.5;entryDx=0;entryDy=0;exitX=0.75;exitY=0;exitDx=0;exitDy=0;" edge="1" parent="1" source="uQT7_8eZXiCh4m7MQPwC-8" target="uQT7_8eZXiCh4m7MQPwC-26">
          <mxGeometry width="160" relative="1" as="geometry">
            <mxPoint x="6110" y="-250" as="sourcePoint" />
            <mxPoint x="6270" y="-250" as="targetPoint" />
          </mxGeometry>
        </mxCell>
        <mxCell id="_8D3QQfQ12P5wWKmFgrH-13" value="creates" style="edgeLabel;html=1;align=center;verticalAlign=middle;resizable=0;points=[];" vertex="1" connectable="0" parent="_8D3QQfQ12P5wWKmFgrH-12">
          <mxGeometry x="-0.118" y="1" relative="1" as="geometry">
            <mxPoint as="offset" />
          </mxGeometry>
        </mxCell>
        <mxCell id="_8D3QQfQ12P5wWKmFgrH-14" value="0...*" style="edgeLabel;html=1;align=center;verticalAlign=middle;resizable=0;points=[];" vertex="1" connectable="0" parent="_8D3QQfQ12P5wWKmFgrH-12">
          <mxGeometry x="-0.8309" y="1" relative="1" as="geometry">
            <mxPoint as="offset" />
          </mxGeometry>
        </mxCell>
        <mxCell id="_8D3QQfQ12P5wWKmFgrH-15" value="1" style="edgeLabel;html=1;align=center;verticalAlign=middle;resizable=0;points=[];" vertex="1" connectable="0" parent="_8D3QQfQ12P5wWKmFgrH-12">
          <mxGeometry x="0.6894" y="1" relative="1" as="geometry">
            <mxPoint as="offset" />
          </mxGeometry>
        </mxCell>
        <mxCell id="_8D3QQfQ12P5wWKmFgrH-16" value="" style="endArrow=diamondThin;endFill=1;endSize=24;html=1;rounded=0;entryX=0.225;entryY=1.002;entryDx=0;entryDy=0;exitX=0.25;exitY=0;exitDx=0;exitDy=0;entryPerimeter=0;" edge="1" parent="1" source="uQT7_8eZXiCh4m7MQPwC-11" target="uQT7_8eZXiCh4m7MQPwC-26">
          <mxGeometry width="160" relative="1" as="geometry">
            <mxPoint x="6130" y="-193" as="sourcePoint" />
            <mxPoint x="6344" y="-285" as="targetPoint" />
          </mxGeometry>
        </mxCell>
        <mxCell id="_8D3QQfQ12P5wWKmFgrH-17" value="creates" style="edgeLabel;html=1;align=center;verticalAlign=middle;resizable=0;points=[];" vertex="1" connectable="0" parent="_8D3QQfQ12P5wWKmFgrH-16">
          <mxGeometry x="-0.118" y="1" relative="1" as="geometry">
            <mxPoint as="offset" />
          </mxGeometry>
        </mxCell>
        <mxCell id="_8D3QQfQ12P5wWKmFgrH-18" value="0...*" style="edgeLabel;html=1;align=center;verticalAlign=middle;resizable=0;points=[];" vertex="1" connectable="0" parent="_8D3QQfQ12P5wWKmFgrH-16">
          <mxGeometry x="-0.8309" y="1" relative="1" as="geometry">
            <mxPoint as="offset" />
          </mxGeometry>
        </mxCell>
        <mxCell id="_8D3QQfQ12P5wWKmFgrH-19" value="1" style="edgeLabel;html=1;align=center;verticalAlign=middle;resizable=0;points=[];" vertex="1" connectable="0" parent="_8D3QQfQ12P5wWKmFgrH-16">
          <mxGeometry x="0.6894" y="1" relative="1" as="geometry">
            <mxPoint as="offset" />
          </mxGeometry>
        </mxCell>
      </root>
    </mxGraphModel>
  </diagram>
</mxfile>
